<svg width="100" height="52" viewBox="0 0 100 52" fill="none" xmlns="http://www.w3.org/2000/svg">
<g clip-path="url(#clip0_126_1576)">
<path d="M0 32.7238V0C3.78588 0 6.85487 3.0659 6.85487 6.84795V16.7278L5.91298 15.7346C6.57492 14.0278 7.66594 12.7288 9.18343 11.8402C10.7009 10.9515 12.4722 10.5072 14.4946 10.5072C16.5171 10.5072 18.4454 10.9593 20.0675 11.8663C21.6896 12.7733 22.9533 14.0357 23.8612 15.6562C24.7665 17.2767 25.2217 19.1507 25.2217 21.2757V32.7238C25.2217 36.5059 22.1527 39.5718 18.3669 39.5718V22.8962C18.3669 21.6416 18.1235 20.5622 17.6343 19.6552C17.145 18.7482 16.4752 18.0425 15.6197 17.5381C14.7641 17.0336 13.7621 16.7801 12.6109 16.7801C11.4597 16.7801 10.4995 17.0336 9.62821 17.5381C8.75697 18.0425 8.07671 18.7482 7.58745 19.6552C7.09819 20.5622 6.85487 21.6416 6.85487 22.8962V39.5718C3.06899 39.5718 0 36.5059 0 32.7238Z" fill="#24569F"/>
<path d="M38.0864 40.1991C36.098 40.1991 34.3712 39.8671 32.906 39.2058C31.4408 38.5446 30.308 37.5932 29.5047 36.3569C28.7015 35.1206 28.3012 33.683 28.3012 32.0442C28.3012 30.4054 28.6492 29.0724 29.3478 27.8361C30.0463 26.5999 31.1269 25.5622 32.592 24.7258C34.0572 23.8894 35.907 23.2961 38.1387 22.9485L47.453 21.4325V26.66L39.4469 28.0191C38.0864 28.2622 37.0739 28.6987 36.4119 29.326C35.75 29.9533 35.4177 30.7714 35.4177 31.7829C35.4177 32.7944 35.7919 33.5341 36.5428 34.1091C37.2936 34.6841 38.2251 34.9716 39.3423 34.9716C40.7734 34.9716 42.0371 34.6658 43.136 34.0568C44.2349 33.4478 45.0904 32.601 45.7 31.5215C46.3096 30.442 46.6157 29.2554 46.6157 27.9668V20.6484C46.6157 19.4278 46.137 18.4085 45.1767 17.5904C44.2165 16.7723 42.9528 16.3619 41.383 16.3619C39.9179 16.3619 38.6175 16.754 37.4846 17.5381C36.3518 18.3222 35.5224 19.3598 34.9991 20.6484L29.4001 17.9301C29.9574 16.4325 30.8391 15.1335 32.0426 14.0357C33.2461 12.9379 34.6668 12.0754 36.3073 11.4481C37.9477 10.8208 39.7269 10.5072 41.6447 10.5072C43.9811 10.5072 46.0401 10.9332 47.8193 11.7879C49.5984 12.6426 50.9851 13.8266 51.9793 15.3426C52.9735 16.8585 53.4706 18.628 53.4706 20.6484V39.5718H51.8485C49.1615 39.5718 46.982 37.3945 46.982 34.7102L48.4472 34.6057C47.7146 35.8263 46.8434 36.8457 45.8308 37.6637C44.8183 38.4818 43.6671 39.1091 42.3772 39.5456C41.0874 39.9821 39.6562 40.1991 38.0864 40.1991Z" fill="#24569F"/>
<path d="M58.8734 50.0266V17.5642C58.8734 14.0122 61.754 11.1345 65.3097 11.1345V16.7801L64.6817 15.3687C65.6576 13.8344 66.9841 12.6426 68.6586 11.7879C70.3331 10.9332 72.2692 10.5072 74.4669 10.5072C77.1539 10.5072 79.5767 11.1684 81.7404 12.4936C83.9042 13.8188 85.6205 15.5961 86.8947 17.8256C88.1688 20.0551 88.8046 22.5643 88.8046 25.3531C88.8046 28.142 88.1767 30.6145 86.9208 32.8806C85.665 35.1467 83.9565 36.9319 81.7927 38.2388C79.629 39.5456 77.1696 40.1991 74.4146 40.1991C72.3555 40.1991 70.4639 39.7887 68.7371 38.9706C67.0103 38.1525 65.6419 36.9763 64.6294 35.4421L65.7283 34.0829V43.1787C65.7283 46.9608 62.6593 50.0266 58.8734 50.0266ZM73.6297 33.9261C75.1995 33.9261 76.594 33.5602 77.8159 32.8284C79.0377 32.0965 79.9875 31.085 80.6677 29.7964C81.348 28.5079 81.6881 27.0259 81.6881 25.3531C81.6881 23.6803 81.348 22.2088 80.6677 20.9359C79.9875 19.663 79.0377 18.6541 77.8159 17.904C76.594 17.1539 75.1995 16.7801 73.6297 16.7801C72.0599 16.7801 70.7779 17.146 69.5743 17.8779C68.3708 18.6097 67.4289 19.6291 66.7487 20.9359C66.0684 22.2428 65.7283 23.7143 65.7283 25.3531C65.7283 26.9919 66.0684 28.5079 66.7487 29.7964C67.4289 31.085 68.3708 32.0965 69.5743 32.8284C70.7779 33.5602 72.1305 33.9261 73.6297 33.9261Z" fill="#24569F"/>
<path d="M93.1451 39.5718V17.3107C93.1451 13.8998 95.9133 11.1345 99.3276 11.1345H100V32.7238C100 36.5059 96.931 39.5718 93.1451 39.5718Z" fill="#24569F"/>
<path d="M28.2096 46.8065C31.5507 50.0057 36.2419 52.0209 40.8676 52C45.4933 51.9791 50.0405 49.9796 53.2587 46.8065C55.6579 44.4385 51.9583 40.7427 49.5591 43.1107C49.342 43.3251 49.1065 43.5185 48.8763 43.7171C48.8082 43.7772 48.3085 44.1562 48.7768 43.8034C48.6513 43.8975 48.5257 43.9942 48.3949 44.083C48.0181 44.3418 47.6413 44.6006 47.2515 44.8358C45.3023 46.0198 43.1674 46.7595 40.8702 46.7699C38.573 46.7804 36.4983 46.1296 34.536 44.9926C34.1147 44.7495 33.704 44.4882 33.3011 44.2137C33.1258 44.0935 32.9557 43.9706 32.7856 43.8478C32.3749 43.5577 32.9217 43.9628 32.7202 43.8008C32.4455 43.5786 32.1682 43.3538 31.9118 43.1081C29.4812 40.7793 25.7738 44.4725 28.2122 46.8039L28.2096 46.8065Z" fill="#E2327D"/>
<path d="M95.963 9.7727C92.5303 9.7727 89.7465 12.5537 89.7465 15.9829C89.7465 12.5537 86.9627 9.7727 83.53 9.7727C86.9627 9.7727 89.7465 6.9917 89.7465 3.5625C89.7465 6.9917 92.5303 9.7727 95.963 9.7727Z" fill="#CD7B2E"/>
</g>
<defs>
<clipPath id="clip0_126_1576">
<rect width="100" height="52" fill="white"/>
</clipPath>
</defs>
</svg>
